<svg xmlns="http://www.w3.org/2000/svg" version="1.1" xmlns:xlink="http://www.w3.org/1999/xlink" xmlns:svgjs="http://svgjs.dev/svgjs" viewBox="0 0 800 800"><defs><linearGradient x1="50%" y1="0%" x2="50%" y2="100%" id="ffflurry-grad" gradientTransform="rotate(270)"><stop stop-color="hsl(0, 83%, 5%)" stop-opacity="1" offset="0%"></stop><stop stop-color="hsl(353, 98%, 41%)" stop-opacity="1" offset="45%"></stop><stop stop-color="hsl(37, 91%, 55%)" stop-opacity="1" offset="100%"></stop></linearGradient></defs><rect width="100%" height="100%" fill="hsl(0, 83%, 5%)"></rect><g fill="url(#ffflurry-grad)"><rect width="172" height="2" x="296" y="679" rx="1" transform="rotate(23, 382, 680)" opacity="0.37"></rect><rect width="347" height="2" x="293.5" y="221" rx="1" transform="rotate(23, 467, 222)" opacity="0.86"></rect><rect width="65" height="2" x="678.5" y="167" rx="1" transform="rotate(23, 711, 168)" opacity="0.94"></rect><rect width="142" height="2" x="696" y="674" rx="1" transform="rotate(23, 767, 675)" opacity="0.10"></rect><rect width="395" height="2" x="95.5" y="113" rx="1" transform="rotate(23, 293, 114)" opacity="0.08"></rect><rect width="343" height="2" x="107.5" y="223" rx="1" transform="rotate(23, 279, 224)" opacity="0.48"></rect><rect width="112" height="2" x="702" y="207" rx="1" transform="rotate(23, 758, 208)" opacity="0.60"></rect><rect width="139" height="2" x="128.5" y="187" rx="1" transform="rotate(23, 198, 188)" opacity="0.82"></rect><rect width="231" height="2" x="81.5" y="56" rx="1" transform="rotate(23, 197, 57)" opacity="0.60"></rect><rect width="42" height="2" x="561" y="466" rx="1" transform="rotate(23, 582, 467)" opacity="0.08"></rect><rect width="271" height="2" x="195.5" y="523" rx="1" transform="rotate(23, 331, 524)" opacity="0.43"></rect><rect width="92" height="2" x="723" y="277" rx="1" transform="rotate(23, 769, 278)" opacity="0.92"></rect><rect width="175" height="2" x="179.5" y="538" rx="1" transform="rotate(23, 267, 539)" opacity="0.96"></rect><rect width="193" height="2" x="557.5" y="507" rx="1" transform="rotate(23, 654, 508)" opacity="0.60"></rect><rect width="142" height="2" x="470" y="548" rx="1" transform="rotate(23, 541, 549)" opacity="0.20"></rect><rect width="126" height="2" x="85" y="460" rx="1" transform="rotate(23, 148, 461)" opacity="0.40"></rect><rect width="23" height="2" x="774.5" y="146" rx="1" transform="rotate(23, 786, 147)" opacity="0.13"></rect><rect width="285" height="2" x="387.5" y="766" rx="1" transform="rotate(23, 530, 767)" opacity="0.26"></rect><rect width="272" height="2" x="445" y="230" rx="1" transform="rotate(23, 581, 231)" opacity="0.32"></rect><rect width="53" height="2" x="689.5" y="50" rx="1" transform="rotate(23, 716, 51)" opacity="0.81"></rect><rect width="51" height="2" x="372.5" y="125" rx="1" transform="rotate(23, 398, 126)" opacity="0.76"></rect><rect width="411" height="2" x="287.5" y="138" rx="1" transform="rotate(23, 493, 139)" opacity="0.13"></rect><rect width="358" height="2" x="-146" y="88" rx="1" transform="rotate(23, 33, 89)" opacity="0.88"></rect><rect width="26" height="2" x="430" y="691" rx="1" transform="rotate(23, 443, 692)" opacity="0.93"></rect><rect width="136" height="2" x="570" y="763" rx="1" transform="rotate(23, 638, 764)" opacity="0.27"></rect><rect width="299" height="2" x="-119.5" y="353" rx="1" transform="rotate(23, 30, 354)" opacity="0.74"></rect><rect width="365" height="2" x="34.5" y="639" rx="1" transform="rotate(23, 217, 640)" opacity="0.30"></rect><rect width="138" height="2" x="643" y="755" rx="1" transform="rotate(23, 712, 756)" opacity="0.28"></rect><rect width="152" height="2" x="503" y="713" rx="1" transform="rotate(23, 579, 714)" opacity="0.36"></rect><rect width="215" height="2" x="611.5" y="640" rx="1" transform="rotate(23, 719, 641)" opacity="0.55"></rect><rect width="222" height="2" x="203" y="363" rx="1" transform="rotate(23, 314, 364)" opacity="0.59"></rect><rect width="95" height="2" x="386.5" y="73" rx="1" transform="rotate(23, 434, 74)" opacity="0.28"></rect><rect width="44" height="2" x="203" y="362" rx="1" transform="rotate(23, 225, 363)" opacity="0.28"></rect><rect width="57" height="2" x="300.5" y="276" rx="1" transform="rotate(23, 329, 277)" opacity="0.72"></rect><rect width="294" height="2" x="328" y="30" rx="1" transform="rotate(23, 475, 31)" opacity="0.42"></rect><rect width="242" height="2" x="367" y="623" rx="1" transform="rotate(23, 488, 624)" opacity="0.94"></rect><rect width="329" height="2" x="-125.5" y="228" rx="1" transform="rotate(23, 39, 229)" opacity="0.15"></rect><rect width="235" height="2" x="64.5" y="754" rx="1" transform="rotate(23, 182, 755)" opacity="0.10"></rect><rect width="114" height="2" x="538" y="585" rx="1" transform="rotate(23, 595, 586)" opacity="0.65"></rect><rect width="116" height="2" x="-1" y="585" rx="1" transform="rotate(23, 57, 586)" opacity="0.42"></rect><rect width="212" height="2" x="82" y="279" rx="1" transform="rotate(23, 188, 280)" opacity="0.56"></rect><rect width="45" height="2" x="308.5" y="708" rx="1" transform="rotate(23, 331, 709)" opacity="0.29"></rect><rect width="214" height="2" x="-62" y="20" rx="1" transform="rotate(23, 45, 21)" opacity="0.24"></rect><rect width="186" height="2" x="492" y="128" rx="1" transform="rotate(23, 585, 129)" opacity="0.49"></rect><rect width="228" height="2" x="1" y="665" rx="1" transform="rotate(23, 115, 666)" opacity="0.28"></rect><rect width="235" height="2" x="-17.5" y="56" rx="1" transform="rotate(23, 100, 57)" opacity="0.13"></rect><rect width="91" height="2" x="211.5" y="39" rx="1" transform="rotate(23, 257, 40)" opacity="0.93"></rect><rect width="148" height="2" x="279" y="771" rx="1" transform="rotate(23, 353, 772)" opacity="0.71"></rect><rect width="32" height="2" x="623" y="631" rx="1" transform="rotate(23, 639, 632)" opacity="0.89"></rect><rect width="161" height="2" x="169.5" y="705" rx="1" transform="rotate(23, 250, 706)" opacity="0.33"></rect><rect width="129" height="2" x="692.5" y="529" rx="1" transform="rotate(23, 757, 530)" opacity="0.49"></rect><rect width="311" height="2" x="99.5" y="416" rx="1" transform="rotate(23, 255, 417)" opacity="0.19"></rect><rect width="324" height="2" x="489" y="53" rx="1" transform="rotate(23, 651, 54)" opacity="0.49"></rect><rect width="269" height="2" x="462.5" y="357" rx="1" transform="rotate(23, 597, 358)" opacity="0.46"></rect><rect width="249" height="2" x="646.5" y="31" rx="1" transform="rotate(23, 771, 32)" opacity="0.17"></rect><rect width="311" height="2" x="347.5" y="440" rx="1" transform="rotate(23, 503, 441)" opacity="0.31"></rect><rect width="273" height="2" x="136.5" y="316" rx="1" transform="rotate(23, 273, 317)" opacity="0.60"></rect><rect width="194" height="2" x="277" y="466" rx="1" transform="rotate(23, 374, 467)" opacity="0.19"></rect><rect width="344" height="2" x="591" y="388" rx="1" transform="rotate(23, 763, 389)" opacity="0.99"></rect><rect width="30" height="2" x="469" y="721" rx="1" transform="rotate(23, 484, 722)" opacity="0.37"></rect><rect width="442" height="2" x="465" y="288" rx="1" transform="rotate(23, 686, 289)" opacity="0.19"></rect><rect width="320" height="2" x="-55" y="369" rx="1" transform="rotate(23, 105, 370)" opacity="0.26"></rect><rect width="397" height="2" x="488.5" y="415" rx="1" transform="rotate(23, 687, 416)" opacity="0.41"></rect><rect width="301" height="2" x="249.5" y="268" rx="1" transform="rotate(23, 400, 269)" opacity="0.11"></rect><rect width="204" height="2" x="-11" y="281" rx="1" transform="rotate(23, 91, 282)" opacity="0.85"></rect><rect width="54" height="2" x="350" y="346" rx="1" transform="rotate(23, 377, 347)" opacity="0.66"></rect><rect width="69" height="2" x="134.5" y="371" rx="1" transform="rotate(23, 169, 372)" opacity="0.99"></rect><rect width="251" height="2" x="533.5" y="172" rx="1" transform="rotate(23, 659, 173)" opacity="0.24"></rect><rect width="160" height="2" x="661" y="136" rx="1" transform="rotate(23, 741, 137)" opacity="0.07"></rect><rect width="164" height="2" x="597" y="577" rx="1" transform="rotate(23, 679, 578)" opacity="0.66"></rect><rect width="84" height="2" x="314" y="35" rx="1" transform="rotate(23, 356, 36)" opacity="0.84"></rect><rect width="347" height="2" x="-15.5" y="122" rx="1" transform="rotate(23, 158, 123)" opacity="0.24"></rect><rect width="336" height="2" x="380" y="645" rx="1" transform="rotate(23, 548, 646)" opacity="0.83"></rect><rect width="397" height="2" x="305.5" y="317" rx="1" transform="rotate(23, 504, 318)" opacity="0.47"></rect><rect width="30" height="2" x="406" y="623" rx="1" transform="rotate(23, 421, 624)" opacity="0.15"></rect><rect width="268" height="2" x="297" y="389" rx="1" transform="rotate(23, 431, 390)" opacity="0.72"></rect><rect width="148" height="2" x="154" y="482" rx="1" transform="rotate(23, 228, 483)" opacity="0.74"></rect><rect width="90" height="2" x="4" y="469" rx="1" transform="rotate(23, 49, 470)" opacity="0.53"></rect><rect width="263" height="2" x="-102.5" y="728" rx="1" transform="rotate(23, 29, 729)" opacity="0.98"></rect><rect width="283" height="2" x="134.5" y="768" rx="1" transform="rotate(23, 276, 769)" opacity="0.52"></rect><rect width="71" height="2" x="354.5" y="567" rx="1" transform="rotate(23, 390, 568)" opacity="0.08"></rect><rect width="82" height="2" x="106" y="32" rx="1" transform="rotate(23, 147, 33)" opacity="0.74"></rect><rect width="327" height="2" x="-86.5" y="164" rx="1" transform="rotate(23, 77, 165)" opacity="0.69"></rect><rect width="46" height="2" x="537" y="45" rx="1" transform="rotate(23, 560, 46)" opacity="0.45"></rect><rect width="106" height="2" x="376" y="485" rx="1" transform="rotate(23, 429, 486)" opacity="0.24"></rect><rect width="248" height="2" x="-26" y="755" rx="1" transform="rotate(23, 98, 756)" opacity="0.22"></rect><rect width="391" height="2" x="-26.5" y="559" rx="1" transform="rotate(23, 169, 560)" opacity="0.37"></rect><rect width="335" height="2" x="306.5" y="539" rx="1" transform="rotate(23, 474, 540)" opacity="0.25"></rect><rect width="275" height="2" x="221.5" y="181" rx="1" transform="rotate(23, 359, 182)" opacity="0.95"></rect><rect width="195" height="2" x="549.5" y="688" rx="1" transform="rotate(23, 647, 689)" opacity="0.58"></rect><rect width="43" height="2" x="751.5" y="760" rx="1" transform="rotate(23, 773, 761)" opacity="0.18"></rect><rect width="214" height="2" x="203" y="617" rx="1" transform="rotate(23, 310, 618)" opacity="0.43"></rect><rect width="55" height="2" x="294.5" y="433" rx="1" transform="rotate(23, 322, 434)" opacity="0.42"></rect><rect width="231" height="2" x="650.5" y="95" rx="1" transform="rotate(23, 766, 96)" opacity="0.42"></rect><rect width="302" height="2" x="272" y="767" rx="1" transform="rotate(23, 423, 768)" opacity="0.15"></rect></g></svg>